<svg width="24" height="24" viewBox="0 0 24 24" fill="none" xmlns="http://www.w3.org/2000/svg">
<path d="M6.00001 4.79998C6.00001 4.48172 5.87358 4.17649 5.64854 3.95145C5.42349 3.7264 5.11827 3.59998 4.80001 3.59998C4.48175 3.59998 4.17653 3.7264 3.95148 3.95145C3.72644 4.17649 3.60001 4.48172 3.60001 4.79998V13.5216C3.23519 13.7322 2.93225 14.0352 2.72162 14.4C2.511 14.7649 2.40012 15.1787 2.40012 15.6C2.40012 16.0212 2.511 16.4351 2.72162 16.7999C2.93225 17.1648 3.23519 17.4677 3.60001 17.6784V19.2C3.60001 19.5182 3.72644 19.8235 3.95148 20.0485C4.17653 20.2735 4.48175 20.4 4.80001 20.4C5.11827 20.4 5.42349 20.2735 5.64854 20.0485C5.87358 19.8235 6.00001 19.5182 6.00001 19.2V17.6784C6.36483 17.4677 6.66777 17.1648 6.8784 16.7999C7.08902 16.4351 7.1999 16.0212 7.1999 15.6C7.1999 15.1787 7.08902 14.7649 6.8784 14.4C6.66777 14.0352 6.36483 13.7322 6.00001 13.5216V4.79998ZM13.2 4.79998C13.2 4.48172 13.0736 4.17649 12.8485 3.95145C12.6235 3.7264 12.3183 3.59998 12 3.59998C11.6818 3.59998 11.3765 3.7264 11.1515 3.95145C10.9264 4.17649 10.8 4.48172 10.8 4.79998V6.32158C10.4352 6.53223 10.1322 6.83519 9.92163 7.20003C9.711 7.56486 9.60012 7.97871 9.60012 8.39998C9.60012 8.82124 9.711 9.23509 9.92163 9.59992C10.1322 9.96476 10.4352 10.2677 10.8 10.4784V19.2C10.8 19.5182 10.9264 19.8235 11.1515 20.0485C11.3765 20.2735 11.6818 20.4 12 20.4C12.3183 20.4 12.6235 20.2735 12.8485 20.0485C13.0736 19.8235 13.2 19.5182 13.2 19.2V10.4784C13.5648 10.2677 13.8678 9.96476 14.0784 9.59992C14.289 9.23509 14.3999 8.82124 14.3999 8.39998C14.3999 7.97871 14.289 7.56486 14.0784 7.20003C13.8678 6.83519 13.5648 6.53223 13.2 6.32158V4.79998ZM19.2 3.59998C19.5183 3.59998 19.8235 3.7264 20.0485 3.95145C20.2736 4.17649 20.4 4.48172 20.4 4.79998V13.5216C20.7648 13.7322 21.0678 14.0352 21.2784 14.4C21.489 14.7649 21.5999 15.1787 21.5999 15.6C21.5999 16.0212 21.489 16.4351 21.2784 16.7999C21.0678 17.1648 20.7648 17.4677 20.4 17.6784V19.2C20.4 19.5182 20.2736 19.8235 20.0485 20.0485C19.8235 20.2735 19.5183 20.4 19.2 20.4C18.8818 20.4 18.5765 20.2735 18.3515 20.0485C18.1264 19.8235 18 19.5182 18 19.2V17.6784C17.6352 17.4677 17.3323 17.1648 17.1216 16.7999C16.911 16.4351 16.8001 16.0212 16.8001 15.6C16.8001 15.1787 16.911 14.7649 17.1216 14.4C17.3323 14.0352 17.6352 13.7322 18 13.5216V4.79998C18 4.48172 18.1264 4.17649 18.3515 3.95145C18.5765 3.7264 18.8818 3.59998 19.2 3.59998Z" fill="#111928"/>
</svg>
