<svg width="24" height="25" viewBox="0 0 24 25" fill="none" xmlns="http://www.w3.org/2000/svg">
<path d="M12 2.90002C10.0904 2.90002 8.25906 3.65859 6.9088 5.00886C5.55853 6.35912 4.79996 8.19047 4.79996 10.1V14.4032L3.95156 15.2516C3.78379 15.4194 3.66954 15.6332 3.62326 15.866C3.57698 16.0987 3.60075 16.34 3.69155 16.5592C3.78235 16.7785 3.93612 16.9658 4.13341 17.0977C4.33071 17.2296 4.56266 17.3 4.79996 17.3H19.2C19.4373 17.3 19.6692 17.2296 19.8665 17.0977C20.0638 16.9658 20.2176 16.7785 20.3084 16.5592C20.3992 16.34 20.4229 16.0987 20.3767 15.866C20.3304 15.6332 20.2161 15.4194 20.0484 15.2516L19.2 14.4032V10.1C19.2 8.19047 18.4414 6.35912 17.0911 5.00886C15.7409 3.65859 13.9095 2.90002 12 2.90002ZM12 22.1C11.0452 22.1 10.1295 21.7207 9.45438 21.0456C8.77925 20.3705 8.39996 19.4548 8.39996 18.5H15.6C15.6 19.4548 15.2207 20.3705 14.5455 21.0456C13.8704 21.7207 12.9547 22.1 12 22.1Z" fill="#6B7280"/>
</svg>
