<svg width="28" height="28" viewBox="0 0 28 28" fill="none" xmlns="http://www.w3.org/2000/svg">
<path fill-rule="evenodd" clip-rule="evenodd" d="M20.5898 17.7898C20.3273 18.0523 19.9712 18.1997 19.6 18.1997C19.2288 18.1997 18.8727 18.0523 18.6102 17.7898L14 13.1796L9.38979 17.7898C9.12575 18.0448 8.77211 18.1859 8.40503 18.1827C8.03796 18.1795 7.68682 18.0323 7.42725 17.7727C7.16768 17.5132 7.02044 17.162 7.01725 16.795C7.01406 16.4279 7.15517 16.0742 7.41019 15.8102L13.0102 10.2102C13.2727 9.94773 13.6288 9.80029 14 9.80029C14.3712 9.80029 14.7273 9.94773 14.9898 10.2102L20.5898 15.8102C20.8523 16.0727 20.9997 16.4288 20.9997 16.8C20.9997 17.1712 20.8523 17.5273 20.5898 17.7898Z" fill="#111928"/>
</svg>
