<svg width="24" height="24" viewBox="0 0 24 24" fill="none" xmlns="http://www.w3.org/2000/svg">
<path d="M10.8 2.40002C10.4817 2.40002 10.1765 2.52645 9.95148 2.7515C9.72643 2.97654 9.60001 3.28176 9.60001 3.60002C9.60001 3.91828 9.72643 4.22351 9.95148 4.44855C10.1765 4.6736 10.4817 4.80002 10.8 4.80002H13.2C13.5183 4.80002 13.8235 4.6736 14.0485 4.44855C14.2736 4.22351 14.4 3.91828 14.4 3.60002C14.4 3.28176 14.2736 2.97654 14.0485 2.7515C13.8235 2.52645 13.5183 2.40002 13.2 2.40002H10.8Z" fill="#6B7280"/>
<path fill-rule="evenodd" clip-rule="evenodd" d="M4.79999 5.99998C4.79999 5.36346 5.05284 4.75301 5.50293 4.30292C5.95302 3.85283 6.56347 3.59998 7.19999 3.59998C7.19999 4.55475 7.57927 5.47043 8.2544 6.14556C8.92953 6.82069 9.84521 7.19998 10.8 7.19998H13.2C14.1548 7.19998 15.0704 6.82069 15.7456 6.14556C16.4207 5.47043 16.8 4.55475 16.8 3.59998C17.4365 3.59998 18.047 3.85283 18.497 4.30292C18.9471 4.75301 19.2 5.36346 19.2 5.99998V19.2C19.2 19.8365 18.9471 20.4469 18.497 20.897C18.047 21.3471 17.4365 21.6 16.8 21.6H7.19999C6.56347 21.6 5.95302 21.3471 5.50293 20.897C5.05284 20.4469 4.79999 19.8365 4.79999 19.2V5.99998ZM8.39999 10.8C8.08173 10.8 7.7765 10.9264 7.55146 11.1514C7.32642 11.3765 7.19999 11.6817 7.19999 12C7.19999 12.3182 7.32642 12.6235 7.55146 12.8485C7.7765 13.0735 8.08173 13.2 8.39999 13.2H8.41199C8.73025 13.2 9.03547 13.0735 9.26052 12.8485C9.48556 12.6235 9.61199 12.3182 9.61199 12C9.61199 11.6817 9.48556 11.3765 9.26052 11.1514C9.03547 10.9264 8.73025 10.8 8.41199 10.8H8.39999ZM12 10.8C11.6817 10.8 11.3765 10.9264 11.1515 11.1514C10.9264 11.3765 10.8 11.6817 10.8 12C10.8 12.3182 10.9264 12.6235 11.1515 12.8485C11.3765 13.0735 11.6817 13.2 12 13.2H15.6C15.9182 13.2 16.2235 13.0735 16.4485 12.8485C16.6736 12.6235 16.8 12.3182 16.8 12C16.8 11.6817 16.6736 11.3765 16.4485 11.1514C16.2235 10.9264 15.9182 10.8 15.6 10.8H12ZM8.39999 15.6C8.08173 15.6 7.7765 15.7264 7.55146 15.9514C7.32642 16.1765 7.19999 16.4817 7.19999 16.8C7.19999 17.1182 7.32642 17.4235 7.55146 17.6485C7.7765 17.8735 8.08173 18 8.39999 18H8.41199C8.73025 18 9.03547 17.8735 9.26052 17.6485C9.48556 17.4235 9.61199 17.1182 9.61199 16.8C9.61199 16.4817 9.48556 16.1765 9.26052 15.9514C9.03547 15.7264 8.73025 15.6 8.41199 15.6H8.39999ZM12 15.6C11.6817 15.6 11.3765 15.7264 11.1515 15.9514C10.9264 16.1765 10.8 16.4817 10.8 16.8C10.8 17.1182 10.9264 17.4235 11.1515 17.6485C11.3765 17.8735 11.6817 18 12 18H15.6C15.9182 18 16.2235 17.8735 16.4485 17.6485C16.6736 17.4235 16.8 17.1182 16.8 16.8C16.8 16.4817 16.6736 16.1765 16.4485 15.9514C16.2235 15.7264 15.9182 15.6 15.6 15.6H12Z" fill="#6B7280"/>
</svg>
