<svg width="24" height="24" viewBox="0 0 24 24" fill="none" xmlns="http://www.w3.org/2000/svg">
<path d="M8.39999 3.59998C8.08173 3.59998 7.77651 3.7264 7.55147 3.95145C7.32642 4.17649 7.19999 4.48172 7.19999 4.79998C7.19999 5.11824 7.32642 5.42346 7.55147 5.6485C7.77651 5.87355 8.08173 5.99998 8.39999 5.99998H15.6C15.9183 5.99998 16.2235 5.87355 16.4485 5.6485C16.6736 5.42346 16.8 5.11824 16.8 4.79998C16.8 4.48172 16.6736 4.17649 16.4485 3.95145C16.2235 3.7264 15.9183 3.59998 15.6 3.59998H8.39999ZM4.79999 8.39998C4.79999 8.08172 4.92642 7.77649 5.15147 7.55145C5.37651 7.3264 5.68173 7.19998 5.99999 7.19998H18C18.3183 7.19998 18.6235 7.3264 18.8485 7.55145C19.0736 7.77649 19.2 8.08172 19.2 8.39998C19.2 8.71824 19.0736 9.02346 18.8485 9.2485C18.6235 9.47355 18.3183 9.59998 18 9.59998H5.99999C5.68173 9.59998 5.37651 9.47355 5.15147 9.2485C4.92642 9.02346 4.79999 8.71824 4.79999 8.39998ZM2.39999 13.2C2.39999 12.5635 2.65285 11.953 3.10294 11.5029C3.55302 11.0528 4.16347 10.8 4.79999 10.8H19.2C19.8365 10.8 20.447 11.0528 20.8971 11.5029C21.3471 11.953 21.6 12.5635 21.6 13.2V18C21.6 18.6365 21.3471 19.2469 20.8971 19.697C20.447 20.1471 19.8365 20.4 19.2 20.4H4.79999C4.16347 20.4 3.55302 20.1471 3.10294 19.697C2.65285 19.2469 2.39999 18.6365 2.39999 18V13.2Z" fill="#6B7280"/>
</svg>
