<svg width="24" height="24" viewBox="0 0 24 24" fill="none" xmlns="http://www.w3.org/2000/svg">
<path fill-rule="evenodd" clip-rule="evenodd" d="M7.19999 2.40002C6.56347 2.40002 5.95302 2.65288 5.50293 3.10297C5.05284 3.55306 4.79999 4.1635 4.79999 4.80002V19.2C4.79999 19.8365 5.05284 20.447 5.50293 20.8971C5.95302 21.3472 6.56347 21.6 7.19999 21.6H16.8C17.4365 21.6 18.047 21.3472 18.497 20.8971C18.9471 20.447 19.2 19.8365 19.2 19.2V8.89682C19.1999 8.26036 18.9469 7.65001 18.4968 7.20002L14.4 3.10322C13.95 2.65311 13.3397 2.40016 12.7032 2.40002H7.19999ZM9.59999 14.4C9.59999 14.0818 9.47356 13.7765 9.24852 13.5515C9.02347 13.3265 8.71825 13.2 8.39999 13.2C8.08173 13.2 7.7765 13.3265 7.55146 13.5515C7.32642 13.7765 7.19999 14.0818 7.19999 14.4V18C7.19999 18.3183 7.32642 18.6235 7.55146 18.8486C7.7765 19.0736 8.08173 19.2 8.39999 19.2C8.71825 19.2 9.02347 19.0736 9.24852 18.8486C9.47356 18.6235 9.59999 18.3183 9.59999 18V14.4ZM12 10.8C12.3182 10.8 12.6235 10.9265 12.8485 11.1515C13.0736 11.3765 13.2 11.6818 13.2 12V18C13.2 18.3183 13.0736 18.6235 12.8485 18.8486C12.6235 19.0736 12.3182 19.2 12 19.2C11.6817 19.2 11.3765 19.0736 11.1515 18.8486C10.9264 18.6235 10.8 18.3183 10.8 18V12C10.8 11.6818 10.9264 11.3765 11.1515 11.1515C11.3765 10.9265 11.6817 10.8 12 10.8ZM16.8 9.60002C16.8 9.28176 16.6736 8.97654 16.4485 8.7515C16.2235 8.52645 15.9182 8.40002 15.6 8.40002C15.2817 8.40002 14.9765 8.52645 14.7515 8.7515C14.5264 8.97654 14.4 9.28176 14.4 9.60002V18C14.4 18.3183 14.5264 18.6235 14.7515 18.8486C14.9765 19.0736 15.2817 19.2 15.6 19.2C15.9182 19.2 16.2235 19.0736 16.4485 18.8486C16.6736 18.6235 16.8 18.3183 16.8 18V9.60002Z" fill="#6B7280"/>
</svg>
