<svg width="21" height="20" viewBox="0 0 21 20" fill="none" xmlns="http://www.w3.org/2000/svg">
<path fill-rule="evenodd" clip-rule="evenodd" d="M6.58472 2C6.05428 2 5.54558 2.21071 5.1705 2.58579C4.79543 2.96086 4.58472 3.46957 4.58472 4V16C4.58472 16.5304 4.79543 17.0391 5.1705 17.4142C5.54558 17.7893 6.05428 18 6.58472 18H14.5847C15.1151 18 15.6239 17.7893 15.9989 17.4142C16.374 17.0391 16.5847 16.5304 16.5847 16V7.414C16.5846 6.88361 16.3738 6.37499 15.9987 6L12.5847 2.586C12.2097 2.2109 11.7011 2.00011 11.1707 2H6.58472ZM11.5847 8C11.5847 7.73478 11.4794 7.48043 11.2918 7.29289C11.1043 7.10536 10.8499 7 10.5847 7C10.3195 7 10.0651 7.10536 9.87761 7.29289C9.69007 7.48043 9.58472 7.73478 9.58472 8V11.586L8.29172 10.293C8.19947 10.1975 8.08913 10.1213 7.96712 10.0689C7.84512 10.0165 7.7139 9.9889 7.58112 9.98775C7.44834 9.9866 7.31666 10.0119 7.19376 10.0622C7.07087 10.1125 6.95921 10.1867 6.86532 10.2806C6.77143 10.3745 6.69718 10.4861 6.64689 10.609C6.59661 10.7319 6.57131 10.8636 6.57247 10.9964C6.57362 11.1292 6.60121 11.2604 6.65362 11.3824C6.70602 11.5044 6.78221 11.6148 6.87772 11.707L9.87772 14.707C10.0652 14.8945 10.3196 14.9998 10.5847 14.9998C10.8499 14.9998 11.1042 14.8945 11.2917 14.707L14.2917 11.707C14.4739 11.5184 14.5747 11.2658 14.5724 11.0036C14.5701 10.7414 14.4649 10.4906 14.2795 10.3052C14.0941 10.1198 13.8433 10.0146 13.5811 10.0123C13.3189 10.01 13.0663 10.1108 12.8777 10.293L11.5847 11.586V8Z" fill="#111928"/>
</svg>
