<svg width="32" height="33" viewBox="0 0 32 33" fill="none" xmlns="http://www.w3.org/2000/svg">
<path d="M24.5195 13.4427C24.4454 13.9532 24.1088 14.6467 23.7227 15.2496C23.2355 16.0103 22.4624 16.5432 21.5776 16.7282L17.6799 17.5432C17.0534 17.6742 16.4854 18.0021 16.0588 18.4789L13.5032 21.3355C13.0229 21.8724 12.6872 21.7444 12.6872 21.0243C12.6814 21.051 11.4188 24.307 14.7648 26.237C16.0504 26.9785 17.901 26.7121 19.1866 25.9706L25.9985 22.0414C28.546 20.572 30.3447 18.0862 30.9425 15.2087C30.9662 15.0949 30.9844 14.9807 31.0041 14.8665L24.5195 13.4427Z" fill="url(#paint0_linear_41_505)"/>
<path d="M22.7529 9.51798C24.0386 10.2595 24.5638 11.3635 24.5638 12.8466C24.5638 13.0479 24.548 13.2469 24.5195 13.4427L27.2643 14.6218L31.0041 14.8665C31.483 12.095 30.5445 9.24226 28.8621 6.97469C27.596 5.26825 25.9668 3.78738 24.0082 2.65762C22.4172 1.7399 20.7638 1.13525 19.1026 0.803467L17.2362 3.22047L16.6466 5.99584L22.7529 9.51798Z" fill="url(#paint1_linear_41_505)"/>
<path d="M0.783597 11.5518C0.782899 11.554 0.784832 11.5546 0.78556 11.5524C0.929583 11.1205 1.11018 10.6385 1.33564 10.1237C2.51334 7.4343 4.78286 5.64062 7.57492 4.72608C10.367 3.81156 13.4155 4.13212 15.9601 5.59988L16.6465 5.99578L19.1025 0.803412C11.291 -0.756764 3.30728 3.83253 0.793528 11.5217C0.792327 11.5254 0.787957 11.5382 0.783597 11.5518Z" fill="url(#paint2_linear_41_505)"/>
<path d="M18.9198 25.9705C17.6342 26.7121 16.0503 26.7121 14.7647 25.9705C14.5901 25.8699 14.4256 25.7567 14.27 25.6341L12.009 27.1886L10.0602 30.3377C12.2233 32.1378 15.0321 32.7165 17.8389 32.3946C19.9512 32.1524 22.0495 31.4833 24.0081 30.3536C25.5992 29.4358 26.95 28.3076 28.0682 27.0363L26.9062 24.2129L25.0262 22.4484L18.9198 25.9705Z" fill="url(#paint3_linear_41_505)"/>
<path d="M14.27 25.6341C13.2795 24.8539 12.6871 23.6572 12.6871 22.3754V22.2476V11.5724C12.6871 10.9687 12.865 10.8661 13.3883 11.168C12.5823 10.703 10.7202 9.10701 8.42112 10.4331C7.13551 11.1747 6.07684 12.8116 6.07684 14.2946V22.1529C6.07684 25.0917 7.599 28.1573 9.79442 30.1133C9.88126 30.1906 9.97116 30.2636 10.0602 30.3377L14.27 25.6341Z" fill="url(#paint4_linear_41_505)"/>
<path d="M27.9104 5.81242C27.9089 5.81072 27.9074 5.81209 27.9089 5.8138C28.2113 6.15441 28.5388 6.55162 28.8724 7.00411C30.6148 9.36777 31.2659 12.3614 30.6626 15.2344C30.0593 18.1074 28.2572 20.5847 25.7125 22.0524L25.0262 22.4484L28.0682 27.0363C33.3264 21.0577 33.34 11.8556 27.9316 5.83607C27.929 5.83319 27.92 5.82299 27.9104 5.81242Z" fill="url(#paint5_linear_41_505)"/>
<path d="M6.34355 14.2946C6.34354 12.8115 7.13551 11.4411 8.42113 10.6995C8.59564 10.5989 8.77601 10.5131 8.96002 10.4398L8.74304 7.70627L7.21861 4.57886C4.57671 5.55029 2.4397 7.5579 1.31528 10.1473C0.469097 12.096 9.792e-06 14.246 0 16.5055C0 18.3409 0.302549 20.0738 0.845532 21.6769L3.87391 22.0833L6.34355 21.3389V14.2946Z" fill="url(#paint6_linear_41_505)"/>
<path d="M8.96003 10.4398C10.1316 9.97288 11.4652 10.0586 12.5763 10.6995L12.6871 10.7634L21.5825 15.8943C22.2065 16.2543 22.1498 16.6084 21.4445 16.7559L21.9577 16.6486C22.6329 16.5074 23.2498 16.1623 23.7215 15.6595C24.5327 14.7949 24.8304 13.7518 24.8304 12.8465C24.8304 11.3634 24.0385 9.99299 22.7529 9.25144L15.941 5.32233C13.3935 3.85292 10.3394 3.53959 7.5461 4.46107C7.4356 4.49752 7.32744 4.53885 7.21863 4.57886L8.96003 10.4398Z" fill="url(#paint7_linear_41_505)"/>
<path d="M19.3222 32.1523C19.3244 32.1518 19.324 32.1498 19.3218 32.1503C18.8753 32.2417 18.3673 32.3264 17.8082 32.3888C14.8881 32.7145 11.9675 31.7809 9.77873 29.8225C7.58996 27.8641 6.34356 25.0662 6.34357 22.1307L6.34356 21.3389L0.845551 21.6769C3.3989 29.2156 11.3689 33.8285 19.2912 32.1588C19.2949 32.158 19.3083 32.1553 19.3222 32.1523Z" fill="url(#paint8_linear_41_505)"/>
<defs>
<linearGradient id="paint0_linear_41_505" x1="20.0601" y1="24.27" x2="23.2076" y2="13.3069" gradientUnits="userSpaceOnUse">
<stop stop-color="#1724C9"/>
<stop offset="1" stop-color="#1C64F2"/>
</linearGradient>
<linearGradient id="paint1_linear_41_505" x1="27.3094" y1="10.9004" x2="19.0298" y2="2.64987" gradientUnits="userSpaceOnUse">
<stop stop-color="#1C64F2"/>
<stop offset="1" stop-color="#0092FF"/>
</linearGradient>
<linearGradient id="paint2_linear_41_505" x1="16.1645" y1="5.52115" x2="3.67432" y2="6.3104" gradientUnits="userSpaceOnUse">
<stop stop-color="#0092FF"/>
<stop offset="1" stop-color="#45B2FF"/>
</linearGradient>
<linearGradient id="paint3_linear_41_505" x1="15.3197" y1="29.1627" x2="26.5366" y2="26.136" gradientUnits="userSpaceOnUse">
<stop stop-color="#1C64F2"/>
<stop offset="1" stop-color="#0092FF"/>
</linearGradient>
<linearGradient id="paint4_linear_41_505" x1="7.26875" y1="16.1827" x2="15.2324" y2="24.4347" gradientUnits="userSpaceOnUse">
<stop stop-color="#1724C9"/>
<stop offset="1" stop-color="#1C64F2"/>
</linearGradient>
<linearGradient id="paint5_linear_41_505" x1="25.4504" y1="22.1357" x2="31.0069" y2="10.9346" gradientUnits="userSpaceOnUse">
<stop stop-color="#0092FF"/>
<stop offset="1" stop-color="#45B2FF"/>
</linearGradient>
<linearGradient id="paint6_linear_41_505" x1="5.36387" y1="9.63092" x2="2.39054" y2="20.8065" gradientUnits="userSpaceOnUse">
<stop stop-color="#1C64F2"/>
<stop offset="1" stop-color="#0092FF"/>
</linearGradient>
<linearGradient id="paint7_linear_41_505" x1="20.5431" y1="9.09936" x2="9.67768" y2="11.8046" gradientUnits="userSpaceOnUse">
<stop stop-color="#1724C9"/>
<stop offset="1" stop-color="#1C64F2"/>
</linearGradient>
<linearGradient id="paint8_linear_41_505" x1="6.40676" y1="21.8566" x2="13.3325" y2="32.2745" gradientUnits="userSpaceOnUse">
<stop stop-color="#0092FF"/>
<stop offset="1" stop-color="#45B2FF"/>
</linearGradient>
</defs>
</svg>
