<svg width="32" height="33" viewBox="0 0 32 33" fill="none" xmlns="http://www.w3.org/2000/svg">
<path fill-rule="evenodd" clip-rule="evenodd" d="M4.79999 8.50002C4.79999 8.07568 4.96856 7.66871 5.26862 7.36865C5.56868 7.0686 5.97564 6.90002 6.39999 6.90002H25.6C26.0243 6.90002 26.4313 7.0686 26.7314 7.36865C27.0314 7.66871 27.2 8.07568 27.2 8.50002C27.2 8.92437 27.0314 9.33134 26.7314 9.6314C26.4313 9.93145 26.0243 10.1 25.6 10.1H6.39999C5.97564 10.1 5.56868 9.93145 5.26862 9.6314C4.96856 9.33134 4.79999 8.92437 4.79999 8.50002ZM4.79999 16.5C4.79999 16.0757 4.96856 15.6687 5.26862 15.3687C5.56868 15.0686 5.97564 14.9 6.39999 14.9H25.6C26.0243 14.9 26.4313 15.0686 26.7314 15.3687C27.0314 15.6687 27.2 16.0757 27.2 16.5C27.2 16.9244 27.0314 17.3313 26.7314 17.6314C26.4313 17.9315 26.0243 18.1 25.6 18.1H6.39999C5.97564 18.1 5.56868 17.9315 5.26862 17.6314C4.96856 17.3313 4.79999 16.9244 4.79999 16.5ZM4.79999 24.5C4.79999 24.0757 4.96856 23.6687 5.26862 23.3687C5.56868 23.0686 5.97564 22.9 6.39999 22.9H16C16.4243 22.9 16.8313 23.0686 17.1314 23.3687C17.4314 23.6687 17.6 24.0757 17.6 24.5C17.6 24.9244 17.4314 25.3313 17.1314 25.6314C16.8313 25.9315 16.4243 26.1 16 26.1H6.39999C5.97564 26.1 5.56868 25.9315 5.26862 25.6314C4.96856 25.3313 4.79999 24.9244 4.79999 24.5Z" fill="#6B7280"/>
</svg>
