<svg width="32" height="33" viewBox="0 0 32 33" fill="none" xmlns="http://www.w3.org/2000/svg">
<rect y="0.5" width="32" height="32" rx="16" fill="white"/>
<path d="M16 6.90002C14.0904 6.90002 12.2591 7.65859 10.9088 9.00886C9.55853 10.3591 8.79996 12.1905 8.79996 14.1V18.4032L7.95156 19.2516C7.78379 19.4194 7.66954 19.6332 7.62326 19.866C7.57698 20.0987 7.60075 20.34 7.69155 20.5592C7.78235 20.7785 7.93612 20.9658 8.13341 21.0977C8.33071 21.2296 8.56266 21.3 8.79996 21.3H23.2C23.4373 21.3 23.6692 21.2296 23.8665 21.0977C24.0638 20.9658 24.2176 20.7785 24.3084 20.5592C24.3992 20.34 24.4229 20.0987 24.3767 19.866C24.3304 19.6332 24.2161 19.4194 24.0484 19.2516L23.2 18.4032V14.1C23.2 12.1905 22.4414 10.3591 21.0911 9.00886C19.7409 7.65859 17.9095 6.90002 16 6.90002ZM16 26.1C15.0452 26.1 14.1295 25.7207 13.4544 25.0456C12.7792 24.3705 12.4 23.4548 12.4 22.5H19.6C19.6 23.4548 19.2207 24.3705 18.5455 25.0456C17.8704 25.7207 16.9547 26.1 16 26.1Z" fill="#6B7280"/>
</svg>
