<svg width="51" height="51" viewBox="0 0 51 51" fill="none" xmlns="http://www.w3.org/2000/svg">
<path fill-rule="evenodd" clip-rule="evenodd" d="M25.75 13C26.413 13 27.0489 13.2634 27.5178 13.7322C27.9866 14.2011 28.25 14.837 28.25 15.5V23H35.75C36.413 23 37.0489 23.2634 37.5178 23.7322C37.9866 24.2011 38.25 24.837 38.25 25.5C38.25 26.163 37.9866 26.7989 37.5178 27.2678C37.0489 27.7366 36.413 28 35.75 28H28.25V35.5C28.25 36.163 27.9866 36.7989 27.5178 37.2678C27.0489 37.7366 26.413 38 25.75 38C25.087 38 24.4511 37.7366 23.9822 37.2678C23.5134 36.7989 23.25 36.163 23.25 35.5V28H15.75C15.087 28 14.4511 27.7366 13.9822 27.2678C13.5134 26.7989 13.25 26.163 13.25 25.5C13.25 24.837 13.5134 24.2011 13.9822 23.7322C14.4511 23.2634 15.087 23 15.75 23H23.25V15.5C23.25 14.837 23.5134 14.2011 23.9822 13.7322C24.4511 13.2634 25.087 13 25.75 13Z" fill="#111928"/>
</svg>
