<svg width="24" height="24" viewBox="0 0 24 24" fill="none" xmlns="http://www.w3.org/2000/svg">
<path fill-rule="evenodd" clip-rule="evenodd" d="M12 2.40002C9.34919 2.40002 7.19999 4.54922 7.19999 7.20002V8.40002H5.99999C5.38799 8.40002 4.87441 8.85964 4.80721 9.46804L3.60721 20.268C3.57001 20.6064 3.678 20.946 3.906 21.2004C4.134 21.4548 4.45919 21.6 4.79999 21.6H19.2C19.5408 21.6 19.866 21.4548 20.094 21.2004C20.322 20.946 20.43 20.6064 20.3928 20.268L19.1928 9.46804C19.1256 8.85964 18.612 8.40002 18 8.40002H16.8V7.20002C16.8 4.54922 14.6508 2.40002 12 2.40002ZM14.4 8.40002V7.20002C14.4 5.87402 13.326 4.80002 12 4.80002C10.674 4.80002 9.59999 5.87402 9.59999 7.20002V8.40002H14.4ZM7.19999 12C7.19999 11.3376 7.73759 10.8 8.39999 10.8C9.06239 10.8 9.59999 11.3376 9.59999 12C9.59999 12.6624 9.06239 13.2 8.39999 13.2C7.73759 13.2 7.19999 12.6624 7.19999 12ZM15.6 10.8C14.9376 10.8 14.4 11.3376 14.4 12C14.4 12.6624 14.9376 13.2 15.6 13.2C16.2624 13.2 16.8 12.6624 16.8 12C16.8 11.3376 16.2624 10.8 15.6 10.8Z" fill="#111928"/>
</svg>
