<svg width="122" height="122" viewBox="0 0 122 122" fill="none" xmlns="http://www.w3.org/2000/svg">
<rect width="122" height="122" rx="61" fill="#F2F5F9"/>
<path fill-rule="evenodd" clip-rule="evenodd" d="M61 57C64.1826 57 67.2348 55.7357 69.4853 53.4853C71.7357 51.2348 73 48.1826 73 45C73 41.8174 71.7357 38.7652 69.4853 36.5147C67.2348 34.2643 64.1826 33 61 33C57.8174 33 54.7652 34.2643 52.5147 36.5147C50.2643 38.7652 49 41.8174 49 45C49 48.1826 50.2643 51.2348 52.5147 53.4853C54.7652 55.7357 57.8174 57 61 57ZM33 93C33 89.323 33.7242 85.682 35.1314 82.2849C36.5385 78.8877 38.601 75.8011 41.201 73.201C43.8011 70.601 46.8877 68.5385 50.2849 67.1314C53.682 65.7242 57.323 65 61 65C64.677 65 68.318 65.7242 71.7151 67.1314C75.1123 68.5385 78.1989 70.601 80.799 73.201C83.399 75.8011 85.4615 78.8877 86.8686 82.2849C88.2758 85.682 89 89.323 89 93H33Z" fill="#495567"/>
</svg>
