<svg width="26" height="25" viewBox="0 0 26 25" fill="none" xmlns="http://www.w3.org/2000/svg">
<path fill-rule="evenodd" clip-rule="evenodd" d="M12.75 0C13.413 0 14.0489 0.263393 14.5178 0.732234C14.9866 1.20107 15.25 1.83696 15.25 2.5V10H22.75C23.413 10 24.0489 10.2634 24.5178 10.7322C24.9866 11.2011 25.25 11.837 25.25 12.5C25.25 13.163 24.9866 13.7989 24.5178 14.2678C24.0489 14.7366 23.413 15 22.75 15H15.25V22.5C15.25 23.163 14.9866 23.7989 14.5178 24.2678C14.0489 24.7366 13.413 25 12.75 25C12.087 25 11.4511 24.7366 10.9822 24.2678C10.5134 23.7989 10.25 23.163 10.25 22.5V15H2.75C2.08696 15 1.45107 14.7366 0.982234 14.2678C0.513393 13.7989 0.25 13.163 0.25 12.5C0.25 11.837 0.513393 11.2011 0.982234 10.7322C1.45107 10.2634 2.08696 10 2.75 10H10.25V2.5C10.25 1.83696 10.5134 1.20107 10.9822 0.732234C11.4511 0.263393 12.087 0 12.75 0Z" fill="#111928"/>
</svg>
