<svg width="24" height="25" viewBox="0 0 24 25" fill="none" xmlns="http://www.w3.org/2000/svg">
<path d="M5.99998 4.09998C5.36346 4.09998 4.75301 4.35283 4.30292 4.80292C3.85283 5.25301 3.59998 5.86346 3.59998 6.49998V8.89998C3.59998 9.53649 3.85283 10.1469 4.30292 10.597C4.75301 11.0471 5.36346 11.3 5.99998 11.3H8.39998C9.03649 11.3 9.64694 11.0471 10.097 10.597C10.5471 10.1469 10.8 9.53649 10.8 8.89998V6.49998C10.8 5.86346 10.5471 5.25301 10.097 4.80292C9.64694 4.35283 9.03649 4.09998 8.39998 4.09998H5.99998ZM5.99998 13.7C5.36346 13.7 4.75301 13.9528 4.30292 14.4029C3.85283 14.853 3.59998 15.4635 3.59998 16.1V18.5C3.59998 19.1365 3.85283 19.7469 4.30292 20.197C4.75301 20.6471 5.36346 20.9 5.99998 20.9H8.39998C9.03649 20.9 9.64694 20.6471 10.097 20.197C10.5471 19.7469 10.8 19.1365 10.8 18.5V16.1C10.8 15.4635 10.5471 14.853 10.097 14.4029C9.64694 13.9528 9.03649 13.7 8.39998 13.7H5.99998ZM13.2 6.49998C13.2 5.86346 13.4528 5.25301 13.9029 4.80292C14.353 4.35283 14.9635 4.09998 15.6 4.09998H18C18.6365 4.09998 19.2469 4.35283 19.697 4.80292C20.1471 5.25301 20.4 5.86346 20.4 6.49998V8.89998C20.4 9.53649 20.1471 10.1469 19.697 10.597C19.2469 11.0471 18.6365 11.3 18 11.3H15.6C14.9635 11.3 14.353 11.0471 13.9029 10.597C13.4528 10.1469 13.2 9.53649 13.2 8.89998V6.49998ZM13.2 16.1C13.2 15.4635 13.4528 14.853 13.9029 14.4029C14.353 13.9528 14.9635 13.7 15.6 13.7H18C18.6365 13.7 19.2469 13.9528 19.697 14.4029C20.1471 14.853 20.4 15.4635 20.4 16.1V18.5C20.4 19.1365 20.1471 19.7469 19.697 20.197C19.2469 20.6471 18.6365 20.9 18 20.9H15.6C14.9635 20.9 14.353 20.6471 13.9029 20.197C13.4528 19.7469 13.2 19.1365 13.2 18.5V16.1Z" fill="#6B7280"/>
</svg>
