<svg width="20" height="21" viewBox="0 0 20 21" fill="none" xmlns="http://www.w3.org/2000/svg">
<path fill-rule="evenodd" clip-rule="evenodd" d="M4.29303 4.96735C4.48056 4.7856 4.73487 4.68351 5.00003 4.68351C5.26519 4.68351 5.5195 4.7856 5.70703 4.96735L10 9.1292L14.293 4.96735C14.3853 4.87476 14.4956 4.8009 14.6176 4.75009C14.7396 4.69929 14.8709 4.67254 15.0036 4.67142C15.1364 4.6703 15.2681 4.69483 15.391 4.74358C15.5139 4.79232 15.6255 4.86431 15.7194 4.95533C15.8133 5.04636 15.8876 5.1546 15.9379 5.27374C15.9881 5.39288 16.0134 5.52054 16.0123 5.64926C16.0111 5.77798 15.9835 5.90519 15.9311 6.02347C15.8787 6.14175 15.8025 6.24872 15.707 6.33815L11.414 10.5L15.707 14.6618C15.8892 14.8447 15.99 15.0896 15.9877 15.3438C15.9854 15.5979 15.8803 15.8411 15.6948 16.0208C15.5094 16.2006 15.2586 16.3025 14.9964 16.3048C14.7342 16.307 14.4816 16.2092 14.293 16.0327L10 11.8708L5.70703 16.0327C5.51843 16.2092 5.26583 16.307 5.00363 16.3048C4.74143 16.3025 4.49062 16.2006 4.30521 16.0208C4.1198 15.8411 4.01463 15.5979 4.01236 15.3438C4.01008 15.0896 4.11087 14.8447 4.29303 14.6618L8.58603 10.5L4.29303 6.33815C4.10556 6.15635 4.00024 5.90981 4.00024 5.65275C4.00024 5.39569 4.10556 5.14915 4.29303 4.96735Z" fill="#111928"/>
</svg>
